<?xml version="1.0" encoding="UTF-8"?>
<svg enable-background="new 0 0 131.439 135.382" viewBox="0 0 131.439 135.382" xmlns="http://www.w3.org/2000/svg">
 <defs>
  <radialGradient id="a" cx="43.626" cy="39.922" r="62.912" gradientUnits="userSpaceOnUse">
   <stop stop-color="#d1f593" offset="0"/>
   <stop stop-color="#81ce09" offset="1"/>
  </radialGradient>
 </defs>
 <path d="m76.082,8.414v11.394c0,1.716-1.276,11.74 0,12.849 1.005.873 6.663,0 7.933,0l18.209.002c7.839,0 22.055-2.683 26.821,5.456 3.872,6.611 1.504,19.136 1.504,26.321 0,8.259.764,16.919 0,25.149 0,13.161-15.348,11.016-24.071,11.016h-29.817c-1.217,0-.578,21.079-.578,23.77 0,9.329-9.724,13.491-16.454,6.783l-17.672-17.615c-12.538-12.496-26.787-24.43-38.143-38.02-8.014-8.037.107-15.687 5.762-21.348l23.112-23.133 22.713-22.732c4.909-4.913 11.129-11.191 18.346-4.927 1.473,1.277 2.335,3.075 2.335,5.035" fill="url(#a)"/>
 <path d="m122.555,33.131c2.739,7.476.667,18.487.667,26.229 0,8.235 1.424,17.834-.17,25.972-1.847,9.432-17.986,6.783-24.851,6.783h-28.807c-3.338,0 7.15,46.805-15.508,24.218l-44.922-44.786c-1.645-1.638-6.836-5.036-7.86-6.96-2.461,8.15 5.586,13.8 10.605,18.802 8.041,8.014 16.08,16.028 24.12,24.043 7.107,7.085 14.214,14.167 21.319,21.252 4.767,4.75 14.809,10.171 18.374.609 1.276-3.422.559-8.14.559-11.686v-16.072c0-2.041 19.219-.936 21.728-.936 7.427,0 20.457,2.493 27.284-1.508 7.997-4.687 5.455-18.219 5.455-25.948v-23.102c0-6.79.218-14.562-7.993-16.91" fill="#67ba06"/>
 <path d="m130.548,89.323v-25.147c0-7.188 2.368-19.708-1.504-26.323-4.765-8.141-18.978-5.455-26.819-5.455l-26.144.003c0-7.505 3.824-27.833-5.508-31.004-9.032-3.067-16.65,8.51-22.044,13.927l-30.945,31.078c-5.77,5.793-19.371,15.193-16.479,24.771 .435-.82 3.545-2.902 4.333-3.693l9.068-9.111 25.182-25.3c5.588-5.616 11.177-11.231 16.767-16.845 2.415-2.427 6.441-4.403 9.76-2.495 4.078,2.345 2.921,9.308 2.921,13.256v13.985c0,.295 7.352.137 7.95.137h32.641c3.795,0 7.969-.183 11.019,2.502 3.006,2.649 2.479,6.782 2.479,10.374v33.552c0,3.837.68,8.637-.667,12.333 4.659-1.338 7.99-5.683 7.99-10.545" fill="#b2ed21"/>
 <path d="m59.885,2.558-38.143,38.178-17.672,17.686c-6.66,6.667-4.419,14.208 1.492,20.097 14.955,14.908 29.911,29.815 44.868,44.721 4.489,4.479 9.887,12.242 16.903,12.142 13.531-.198 9.639-20.317 9.639-29.052 0-3.196-1.092-4.84 2.226-4.84h14.388c8.55,0 17.427.706 25.952,0 12.083-.016 11.902-11.886 11.902-20.498v-31.964c0-8.42-1.94-17.258-12.531-17.258l-29.68-.002h-11.285c-2.05,0-.972-7.453-.972-9.235v-13.988c-.001-7.995-11.847-11.237-17.087-5.987m1.259,128.848-38.144-38.019-17.672-17.615c-6.318-6.3-3.319-12.767 1.97-18.061l45.183-45.223c4.929-4.933 10.313-13.162 18.414-9.812 7.714,3.192 4.296,20.923 4.296,27.474 0,2.961-.73,3.397 2.154,3.397h13.454l28.477.002c11.577,0 10.383,11.977 10.383,19.92v32.577c0,9.204-4.697,13.663-13.83,13.663h-32.859c-1.219,0-6.822-.85-7.778,0-1.099.978 0,9.498 0,10.958v14.418c-.001,7.041-8.419,11.965-14.048,6.321" fill="#739b07"/>
</svg>
